<svg xmlns="http://www.w3.org/2000/svg" xmlns:xlink="http://www.w3.org/1999/xlink" version="1.1" x="0px" y="0px" viewBox="0 0 100 125" style="enable-background:new 0 0 100 100;" xml:space="preserve"><path d="M76.875,16.361c-0.167-0.34-0.513-0.557-0.892-0.559c-0.373,0-0.728,0.21-0.898,0.549L64.506,37.282L51.046,10.14  c-0.168-0.339-0.513-0.554-0.892-0.556c-0.411-0.039-0.727,0.211-0.896,0.549L34.361,39.608L23.83,18.771  c-0.17-0.336-0.516-0.549-0.893-0.549c-0.002,0-0.003,0-0.005,0c-0.379,0.002-0.725,0.218-0.892,0.558l-11.91,24.151  c-0.245,0.496-0.041,1.095,0.454,1.339c0.143,0.07,0.293,0.103,0.441,0.103c0.369,0,0.724-0.205,0.897-0.558l2.952-5.985  l1.887,3.364c0.177,0.315,0.511,0.511,0.872,0.511s0.695-0.195,0.872-0.51l1.861-3.315l1.858,3.315  c0.177,0.315,0.51,0.511,0.872,0.511c0.361,0,0.695-0.195,0.872-0.51l1.861-3.316l1.863,3.316c0.178,0.315,0.511,0.51,0.872,0.51  s0.694-0.195,0.872-0.51l1.833-3.263l1.968,3.894l-0.554,1.097c-0.249,0.493-0.052,1.095,0.441,1.344  c0.494,0.25,1.096,0.051,1.344-0.441l7.343-14.53l1.833,3.264c0.355,0.63,1.389,0.63,1.744,0l1.863-3.316l1.861,3.316  c0.354,0.63,1.391,0.63,1.744,0l1.859-3.315l1.86,3.315c0.177,0.315,0.511,0.511,0.872,0.511s0.695-0.195,0.872-0.511l1.914-3.412  l7.276,14.672c0.174,0.352,0.528,0.556,0.896,0.556c0.149,0,0.301-0.033,0.443-0.104c0.495-0.246,0.697-0.846,0.451-1.34  l-1.69-3.409l2.026-4.009l1.833,3.264c0.354,0.63,1.391,0.63,1.744,0l1.863-3.317l1.861,3.316c0.354,0.631,1.391,0.631,1.744,0  l1.859-3.315l1.86,3.315c0.177,0.315,0.511,0.511,0.872,0.511s0.695-0.195,0.872-0.511l1.868-3.329l4.11,8.368  c0.174,0.354,0.529,0.559,0.898,0.559c0.147,0,0.298-0.033,0.439-0.103c0.496-0.243,0.7-0.843,0.457-1.338L76.875,16.361z   M28.567,38.664l-1.863-3.317c-0.355-0.631-1.391-0.63-1.744,0l-1.861,3.315l-1.858-3.315c-0.177-0.315-0.51-0.511-0.872-0.511  c-0.361,0-0.695,0.195-0.872,0.51l-1.861,3.315l-1.687-3.007l7-14.194l7.238,14.321L28.567,38.664z M55.453,30.025l-1.86-3.315  c-0.354-0.631-1.391-0.631-1.744,0l-1.859,3.315l-1.861-3.315c-0.177-0.315-0.511-0.51-0.872-0.51s-0.694,0.195-0.872,0.51  l-1.863,3.317l-1.619-2.882l7.24-14.326l7.022,14.158L55.453,30.025z M81.28,36.242l-1.86-3.315c-0.354-0.631-1.391-0.631-1.744,0  l-1.859,3.315l-1.861-3.315c-0.177-0.315-0.511-0.511-0.872-0.511s-0.695,0.195-0.872,0.51l-1.863,3.317l-1.619-2.882l7.236-14.318  l6.985,14.223L81.28,36.242z"/><path d="M88.314,69.479c0.383,0.398,1.015,0.411,1.414,0.028c0.397-0.382,0.41-1.016,0.027-1.414l-6.173-6.421  c-0.002-0.002-0.005-0.003-0.007-0.005c-0.087-0.089-0.191-0.16-0.306-0.211c-0.006-0.003-0.01-0.009-0.016-0.011  c-0.12-0.051-0.252-0.08-0.391-0.08s-0.271,0.029-0.391,0.08c-0.007,0.003-0.012,0.01-0.019,0.013  c-0.114,0.052-0.217,0.121-0.303,0.21c-0.002,0.002-0.005,0.003-0.007,0.005l-6.174,6.421c-0.383,0.398-0.37,1.031,0.027,1.414  c0.194,0.187,0.444,0.279,0.693,0.279c0.263,0,0.524-0.103,0.721-0.307l4.453-4.631v3.449l-5.895,6.13  c-0.383,0.398-0.37,1.031,0.027,1.414c0.398,0.383,1.031,0.37,1.414-0.027l4.453-4.631v3.449l-5.895,6.13  c-0.383,0.398-0.37,1.031,0.027,1.414c0.194,0.187,0.444,0.279,0.693,0.279c0.263,0,0.524-0.103,0.721-0.307l4.453-4.631V89  c0,0.552,0.447,1,1,1s1-0.448,1-1V77.518l4.452,4.631c0.383,0.398,1.015,0.411,1.414,0.028c0.397-0.382,0.41-1.016,0.027-1.414  l-5.894-6.13v-3.449l4.452,4.63c0.196,0.205,0.458,0.307,0.721,0.307c0.249,0,0.499-0.093,0.693-0.279  c0.397-0.383,0.41-1.016,0.027-1.414l-5.894-6.13v-3.45L88.314,69.479z"/><path d="M55.918,68.083c-0.383,0.398-0.37,1.031,0.027,1.414c0.194,0.187,0.444,0.279,0.693,0.279c0.263,0,0.524-0.103,0.721-0.307  l4.453-4.631V76.32c0,0.552,0.447,1,1,1s1-0.448,1-1V64.837l4.452,4.631c0.383,0.398,1.015,0.411,1.414,0.028  c0.397-0.382,0.41-1.016,0.027-1.414l-5.894-6.13v-3.449l4.452,4.63c0.196,0.205,0.458,0.307,0.721,0.307  c0.249,0,0.499-0.093,0.693-0.279c0.397-0.383,0.41-1.016,0.027-1.414l-5.894-6.13v-3.45l4.452,4.63  c0.196,0.205,0.458,0.307,0.721,0.307c0.249,0,0.499-0.093,0.693-0.279c0.397-0.383,0.41-1.016,0.027-1.414l-6.173-6.42  c-0.002-0.002-0.005-0.003-0.007-0.005c-0.087-0.089-0.191-0.16-0.306-0.211c-0.006-0.003-0.01-0.009-0.016-0.011  c-0.12-0.051-0.252-0.08-0.391-0.08c-0.139,0-0.271,0.029-0.391,0.08c-0.009,0.004-0.016,0.012-0.025,0.017  c-0.111,0.051-0.213,0.119-0.297,0.205c-0.002,0.002-0.006,0.003-0.008,0.005l-6.174,6.42c-0.383,0.398-0.37,1.031,0.027,1.414  c0.399,0.383,1.032,0.37,1.414-0.027l4.453-4.631v3.449l-5.895,6.13c-0.383,0.398-0.37,1.031,0.027,1.414  c0.399,0.383,1.032,0.371,1.414-0.027l4.453-4.631v3.449L55.918,68.083z"/><path d="M49.725,49.877c0.398,0,0.776-0.241,0.931-0.635c0.261-0.664,0.393-1.364,0.393-2.083v-0.245c0-0.552-0.447-1-1-1  s-1,0.448-1,1v0.245c0,0.468-0.086,0.923-0.254,1.352c-0.202,0.514,0.051,1.095,0.565,1.296  C49.479,49.854,49.603,49.877,49.725,49.877z"/><path d="M31.032,50.865h-3.877l-0.138,0.002c-0.553,0.014-0.945,0.473-0.931,1.024c0.014,0.543,0.5,0.974,1.042,0.974  c0.009,0,0.018,0,0.026,0h3.877c0.553,0,1-0.448,1-1S31.585,50.865,31.032,50.865z"/><path d="M39.009,50.865h-3.988c-0.553,0-1,0.448-1,1s0.447,1,1,1h3.988c0.553,0,1-0.448,1-1S39.562,50.865,39.009,50.865z"/><path d="M31.691,70.084h-3.988c-0.553,0-1,0.448-1,1s0.447,1,1,1h3.988c0.553,0,1-0.448,1-1S32.244,70.084,31.691,70.084z"/><path d="M33.302,81.703h3.988c0.553,0,1-0.448,1-1s-0.447-1-1-1h-3.988c-0.553,0-1,0.448-1,1S32.749,81.703,33.302,81.703z"/><path d="M25.324,81.703h3.988c0.553,0,1-0.448,1-1s-0.447-1-1-1h-3.988c-0.553,0-1,0.448-1,1S24.771,81.703,25.324,81.703z"/><path d="M22.791,52.896c-0.864,1.025-1.342,2.331-1.343,3.676c0,0.284,0.021,0.563,0.062,0.836c0.073,0.497,0.5,0.854,0.988,0.854  c0.048,0,0.098-0.003,0.146-0.011c0.547-0.081,0.925-0.589,0.844-1.135c-0.026-0.177-0.04-0.359-0.04-0.543  c0.001-0.874,0.311-1.722,0.872-2.388c0.355-0.422,0.302-1.053-0.12-1.409C23.777,52.419,23.146,52.473,22.791,52.896z"/><path d="M23.751,59.972c-0.302,0.463-0.171,1.083,0.292,1.384c0.926,0.603,2.002,0.922,3.112,0.923h1.273c0.553,0,1-0.448,1-1  s-0.447-1-1-1h-1.272c-0.722,0-1.421-0.208-2.021-0.599C24.671,59.377,24.052,59.509,23.751,59.972z"/><path d="M39.274,62.106c-0.412,0.368-0.447,1-0.08,1.412c0.606,0.679,0.94,1.555,0.94,2.467l-0.002,0.524  c-0.02,0.552,0.412,1.015,0.964,1.035c0.012,0,0.023,0,0.036,0c0.536,0,0.979-0.425,0.998-0.965l0.004-0.594  c0-1.404-0.515-2.753-1.448-3.799C40.316,61.773,39.686,61.739,39.274,62.106z"/><path d="M16.736,71.027c-0.037-0.55-0.499-0.957-1.066-0.93c-1.629,0.111-3.136,0.92-4.134,2.219  c-0.337,0.438-0.254,1.066,0.184,1.402c0.182,0.14,0.396,0.207,0.608,0.207c0.3,0,0.597-0.134,0.794-0.391  c0.648-0.844,1.627-1.37,2.685-1.442C16.357,72.055,16.773,71.578,16.736,71.027z"/><path d="M12.398,76.548c-0.081-0.545-0.587-0.922-1.137-0.842c-0.546,0.082-0.923,0.59-0.842,1.137  c0.241,1.615,1.168,3.052,2.543,3.943c0.168,0.109,0.356,0.161,0.543,0.161c0.328,0,0.648-0.161,0.84-0.456  c0.301-0.463,0.168-1.083-0.295-1.383C13.157,78.528,12.555,77.595,12.398,76.548z"/><path d="M17.348,81.703h3.988c0.553,0,1-0.448,1-1s-0.447-1-1-1h-3.988c-0.553,0-1,0.448-1,1S16.795,81.703,17.348,81.703z"/><path d="M40.19,69.377c-0.352-0.426-0.98-0.488-1.408-0.137c-0.66,0.544-1.497,0.843-2.354,0.843h-0.747c-0.553,0-1,0.448-1,1  s0.447,1,1,1h0.747c1.32,0,2.607-0.461,3.626-1.299C40.479,70.434,40.541,69.804,40.19,69.377z"/><path d="M41.278,81.703h3.989c0.553,0,1-0.448,1-1s-0.447-1-1-1h-3.989c-0.553,0-1,0.448-1,1S40.726,81.703,41.278,81.703z"/><path d="M48.268,80.599c-0.104,0.542,0.253,1.066,0.795,1.17c1.041,0.198,1.949,0.838,2.492,1.755c0.187,0.315,0.52,0.49,0.861,0.49  c0.173,0,0.349-0.045,0.509-0.14c0.476-0.282,0.632-0.895,0.351-1.37c-0.836-1.41-2.234-2.394-3.838-2.7  C48.896,79.703,48.371,80.056,48.268,80.599z"/><path d="M47.893,51.24c-0.188-0.518-0.764-0.788-1.281-0.597c-0.406,0.147-0.834,0.223-1.271,0.223h-2.343c-0.553,0-1,0.448-1,1  s0.447,1,1,1h2.343c0.671,0,1.328-0.116,1.954-0.344C47.814,52.333,48.082,51.759,47.893,51.24z"/><path d="M24.715,71.084c0-0.552-0.447-1-1-1h-3.989c-0.553,0-1,0.448-1,1s0.447,1,1,1h3.989  C24.268,72.084,24.715,71.636,24.715,71.084z"/><path d="M31.417,61.278c0,0.552,0.447,1,1,1h3.989c0.553,0,1-0.448,1-1s-0.447-1-1-1h-3.989  C31.864,60.278,31.417,60.726,31.417,61.278z"/><path d="M52.069,86.986v2c0,0.552,0.447,1,1,1s1-0.448,1-1v-2c0-0.552-0.447-1-1-1S52.069,86.434,52.069,86.986z"/><text x="0" y="115" fill="#000000" font-size="5px" font-weight="bold" font-family="'Helvetica Neue', Helvetica, Arial-Unicode, Arial, Sans-serif">Created by Made</text><text x="0" y="120" fill="#000000" font-size="5px" font-weight="bold" font-family="'Helvetica Neue', Helvetica, Arial-Unicode, Arial, Sans-serif">from the Noun Project</text></svg>